<?xml version="1.0" encoding="utf-8"?>
<!-- Generator: Adobe Illustrator 16.0.0, SVG Export Plug-In . SVG Version: 6.00 Build 0)  -->
<!DOCTYPE svg PUBLIC "-//W3C//DTD SVG 1.1//EN" "http://www.w3.org/Graphics/SVG/1.1/DTD/svg11.dtd">
<svg version="1.1" id="Layer_1" xmlns="http://www.w3.org/2000/svg" xmlns:xlink="http://www.w3.org/1999/xlink" x="0px" y="0px"
	 width="517.586px" height="517.586px" viewBox="0 0 517.586 517.586" enable-background="new 0 0 517.586 517.586"
	 xml:space="preserve">
<path fill="#39E5E8" stroke="#000000" stroke-width="0.339" stroke-miterlimit="10" d="M448.281,250.786
	c-39.153-80.422-121.671-135.843-217.133-135.843c-86.073,0-161.611,45.065-204.339,112.879l81.905,53.168
	c25.305-41.052,70.67-68.421,122.434-68.421c57.52,0,107.146,33.788,130.118,82.597L448.281,250.786z"/>
<g>
	<path stroke="#000000" stroke-width="0.339" stroke-miterlimit="10" d="M361.266,295.167c8.73,18.551,13.611,39.272,13.611,61.131
		c0,30.123-9.272,58.074-25.109,81.172l81.911,53.174c25.781-38.402,40.826-84.615,40.826-134.346
		c0-37.834-8.705-73.637-24.225-105.512L361.266,295.167z"/>
</g>
</svg>
